 http://www.imdb.com/title/tt2172001/

Source : DVD BabyGirl21 (Thanks)


Format : AVI
Format/Info : Audio Video Interleave
File size : 700 MiB
Duration : 1h 32mn
Overall bit rate : 1 063 Kbps
Writing library : VirtualDub build 32842/release

Video
ID : 0
Format : MPEG-4 Visual
Format profile : Advanced Simple@L5
Format settings, BVOP : 4
Format settings, QPel : No
Format settings, GMC : No warppoints
Format settings, Matrix : Default (H.263)
Muxing mode : Packed bitstream
Codec ID : XVID
Codec ID/Hint : XviD
Duration : 1h 32mn
Bit rate : 926 Kbps
Width : 640 pixels
Height : 352 pixels
Display aspect ratio : 16:9
Frame rate : 23.976 fps
Color space : YUV
Chroma subsampling : 4:2:0
Bit depth : 8 bits
Scan type : Progressive
Compression mode : Lossy
Bits/(Pixel*Frame) : 0.171
Stream size : 609 MiB (87%)
Writing library : XviD 64

Audio
ID : 1
Format : MPEG Audio
Format version : Version 1
Format profile : Layer 3
Codec ID : 55
Codec ID/Hint : MP3
Duration : 1h 32mn
Bit rate mode : Constant
Bit rate : 128 Kbps
Channel(s) : 2 channels
Sampling rate : 44.1 KHz
Compression mode : Lossy
Stream size : 84.3 MiB (12%)
Alignment : Split accross interleaves
Interleave, duration : 42 ms (1.00 video frame)
Interleave, preload duration : 500 ms
Writing library : LAME3.99r
Encoding settings : -m s -V 4 -q 3 -lowpass 17 -b 128


Plot
Thirteen years ago, Aiden Ashley's world was torn apart after an online stalker followed her into the real world and broke into the Ashley family home to claim the object of his desire. The resulting night of terror ended with the murders of both Aiden's mother and father. The stalker escaped the scene without Aiden seeing his face; he is gone without a trace, an unknown man, a murderer now watching Aiden's every move. To escape this danger Aiden spends the next 13 years offline, in therapy and secluded anonymity. Who should Aiden trust in a web of deception where no one may be who they seem? There is nowhere for Aiden to hide when someone wants to love her to death.

 
http://www.shotpix.com/images/83879788163491490569.png 
http://www.shotpix.com/images/86204099912742248218.png 
http://www.shotpix.com/images/15857163114850320104.png